<mxfile host="app.diagrams.net" agent="Mozilla/5.0 (X11; Linux x86_64; rv:141.0) Gecko/20100101 Firefox/141.0" version="28.0.6">
  <diagram name="Page-1" id="yL4hxAMU-pDVTEeRqIQY">
    <mxGraphModel dx="1143" dy="760" grid="1" gridSize="5" guides="1" tooltips="1" connect="1" arrows="1" fold="1" page="1" pageScale="1" pageWidth="850" pageHeight="1100" math="0" shadow="0">
      <root>
        <mxCell id="0" />
        <mxCell id="1" parent="0" />
        <mxCell id="-rJjBb609nBukMwAQ2wX-1" style="edgeStyle=orthogonalEdgeStyle;rounded=0;orthogonalLoop=1;jettySize=auto;html=1;exitX=1;exitY=0.75;exitDx=0;exitDy=0;entryX=0;entryY=0.75;entryDx=0;entryDy=0;" edge="1" parent="1" source="-rJjBb609nBukMwAQ2wX-9" target="-rJjBb609nBukMwAQ2wX-13">
          <mxGeometry relative="1" as="geometry">
            <mxPoint x="335" y="265" as="sourcePoint" />
            <mxPoint x="535" y="260" as="targetPoint" />
          </mxGeometry>
        </mxCell>
        <mxCell id="-rJjBb609nBukMwAQ2wX-2" value="&quot;seq_don&quot; flag&lt;div&gt;(layer completed)&lt;/div&gt;" style="edgeLabel;html=1;align=center;verticalAlign=middle;resizable=0;points=[];" connectable="0" vertex="1" parent="-rJjBb609nBukMwAQ2wX-1">
          <mxGeometry x="-0.1756" y="2" relative="1" as="geometry">
            <mxPoint x="26" y="12" as="offset" />
          </mxGeometry>
        </mxCell>
        <mxCell id="-rJjBb609nBukMwAQ2wX-3" style="edgeStyle=orthogonalEdgeStyle;rounded=0;orthogonalLoop=1;jettySize=auto;html=1;exitX=0;exitY=0.25;exitDx=0;exitDy=0;" edge="1" parent="1" source="-rJjBb609nBukMwAQ2wX-9">
          <mxGeometry relative="1" as="geometry">
            <mxPoint x="75" y="215" as="targetPoint" />
          </mxGeometry>
        </mxCell>
        <mxCell id="-rJjBb609nBukMwAQ2wX-4" value="conv_valid" style="edgeLabel;html=1;align=center;verticalAlign=middle;resizable=0;points=[];" vertex="1" connectable="0" parent="-rJjBb609nBukMwAQ2wX-3">
          <mxGeometry x="-0.0187" y="-2" relative="1" as="geometry">
            <mxPoint x="1" y="-1" as="offset" />
          </mxGeometry>
        </mxCell>
        <mxCell id="-rJjBb609nBukMwAQ2wX-5" style="edgeStyle=orthogonalEdgeStyle;rounded=0;orthogonalLoop=1;jettySize=auto;html=1;exitX=0;exitY=0.75;exitDx=0;exitDy=0;" edge="1" parent="1" source="-rJjBb609nBukMwAQ2wX-9">
          <mxGeometry relative="1" as="geometry">
            <mxPoint x="75" y="255" as="targetPoint" />
          </mxGeometry>
        </mxCell>
        <mxCell id="-rJjBb609nBukMwAQ2wX-6" value="pool_valid" style="edgeLabel;html=1;align=center;verticalAlign=middle;resizable=0;points=[];" vertex="1" connectable="0" parent="-rJjBb609nBukMwAQ2wX-5">
          <mxGeometry x="0.08" y="2" relative="1" as="geometry">
            <mxPoint as="offset" />
          </mxGeometry>
        </mxCell>
        <mxCell id="-rJjBb609nBukMwAQ2wX-7" style="edgeStyle=orthogonalEdgeStyle;rounded=0;orthogonalLoop=1;jettySize=auto;html=1;exitX=0;exitY=0.5;exitDx=0;exitDy=0;" edge="1" parent="1" source="-rJjBb609nBukMwAQ2wX-9">
          <mxGeometry relative="1" as="geometry">
            <mxPoint x="75" y="235.16666666666674" as="targetPoint" />
          </mxGeometry>
        </mxCell>
        <mxCell id="-rJjBb609nBukMwAQ2wX-8" value="&lt;div&gt;relu_valid&lt;/div&gt;" style="edgeLabel;html=1;align=center;verticalAlign=middle;resizable=0;points=[];" vertex="1" connectable="0" parent="-rJjBb609nBukMwAQ2wX-7">
          <mxGeometry x="0.033" relative="1" as="geometry">
            <mxPoint as="offset" />
          </mxGeometry>
        </mxCell>
        <mxCell id="-rJjBb609nBukMwAQ2wX-9" value="Sequencer (Pipeline Controller)&amp;nbsp;" style="whiteSpace=wrap;html=1;aspect=fixed;" vertex="1" parent="1">
          <mxGeometry x="175" y="195" width="80" height="80" as="geometry" />
        </mxCell>
        <mxCell id="-rJjBb609nBukMwAQ2wX-10" style="edgeStyle=orthogonalEdgeStyle;rounded=0;orthogonalLoop=1;jettySize=auto;html=1;exitX=0;exitY=0.25;exitDx=0;exitDy=0;entryX=1;entryY=0.25;entryDx=0;entryDy=0;" edge="1" parent="1" source="-rJjBb609nBukMwAQ2wX-13" target="-rJjBb609nBukMwAQ2wX-9">
          <mxGeometry relative="1" as="geometry" />
        </mxCell>
        <mxCell id="-rJjBb609nBukMwAQ2wX-11" value="seq_start&amp;nbsp;&lt;div&gt;(once parameters loaded)&lt;/div&gt;" style="edgeLabel;html=1;align=center;verticalAlign=middle;resizable=0;points=[];" connectable="0" vertex="1" parent="-rJjBb609nBukMwAQ2wX-10">
          <mxGeometry x="-0.0154" relative="1" as="geometry">
            <mxPoint as="offset" />
          </mxGeometry>
        </mxCell>
        <mxCell id="-rJjBb609nBukMwAQ2wX-12" style="edgeStyle=orthogonalEdgeStyle;rounded=0;orthogonalLoop=1;jettySize=auto;html=1;exitX=1;exitY=0.25;exitDx=0;exitDy=0;" edge="1" parent="1" source="-rJjBb609nBukMwAQ2wX-13">
          <mxGeometry relative="1" as="geometry">
            <mxPoint x="715" y="215" as="targetPoint" />
          </mxGeometry>
        </mxCell>
        <mxCell id="-rJjBb609nBukMwAQ2wX-13" value="FSM Controller" style="whiteSpace=wrap;html=1;aspect=fixed;" vertex="1" parent="1">
          <mxGeometry x="545" y="195" width="80" height="80" as="geometry" />
        </mxCell>
        <mxCell id="-rJjBb609nBukMwAQ2wX-14" value="" style="edgeStyle=orthogonalEdgeStyle;rounded=0;orthogonalLoop=1;jettySize=auto;html=1;" edge="1" parent="1" source="-rJjBb609nBukMwAQ2wX-16" target="-rJjBb609nBukMwAQ2wX-21">
          <mxGeometry relative="1" as="geometry" />
        </mxCell>
        <mxCell id="-rJjBb609nBukMwAQ2wX-15" value="set loop bounds&amp;nbsp;&lt;div&gt;on row/col/channel&lt;/div&gt;&lt;div&gt;counters&lt;/div&gt;" style="edgeStyle=orthogonalEdgeStyle;rounded=0;orthogonalLoop=1;jettySize=auto;html=1;" edge="1" parent="1" source="-rJjBb609nBukMwAQ2wX-16" target="-rJjBb609nBukMwAQ2wX-9">
          <mxGeometry relative="1" as="geometry" />
        </mxCell>
        <mxCell id="-rJjBb609nBukMwAQ2wX-16" value="Configuration Registers (Layer Config CSR Bank)" style="whiteSpace=wrap;html=1;aspect=fixed;" vertex="1" parent="1">
          <mxGeometry x="175" y="450" width="80" height="80" as="geometry" />
        </mxCell>
        <mxCell id="-rJjBb609nBukMwAQ2wX-17" value="" style="edgeStyle=orthogonalEdgeStyle;rounded=0;orthogonalLoop=1;jettySize=auto;html=1;" edge="1" parent="1" source="-rJjBb609nBukMwAQ2wX-21" target="-rJjBb609nBukMwAQ2wX-13">
          <mxGeometry relative="1" as="geometry" />
        </mxCell>
        <mxCell id="-rJjBb609nBukMwAQ2wX-18" value="&quot;start_layer&quot; strobe&amp;nbsp;&lt;div&gt;(when decoding is complete)&lt;/div&gt;" style="edgeLabel;html=1;align=center;verticalAlign=middle;resizable=0;points=[];" connectable="0" vertex="1" parent="-rJjBb609nBukMwAQ2wX-17">
          <mxGeometry x="0.1426" y="2" relative="1" as="geometry">
            <mxPoint as="offset" />
          </mxGeometry>
        </mxCell>
        <mxCell id="-rJjBb609nBukMwAQ2wX-19" style="edgeStyle=orthogonalEdgeStyle;rounded=0;orthogonalLoop=1;jettySize=auto;html=1;exitX=0.25;exitY=0;exitDx=0;exitDy=0;entryX=0.75;entryY=1;entryDx=0;entryDy=0;" edge="1" parent="1" source="-rJjBb609nBukMwAQ2wX-21" target="-rJjBb609nBukMwAQ2wX-9">
          <mxGeometry relative="1" as="geometry">
            <mxPoint x="360" y="305" as="targetPoint" />
            <Array as="points">
              <mxPoint x="570" y="395" />
              <mxPoint x="380" y="395" />
              <mxPoint x="380" y="305" />
              <mxPoint x="235" y="305" />
            </Array>
          </mxGeometry>
        </mxCell>
        <mxCell id="-rJjBb609nBukMwAQ2wX-20" value="decoded control signals" style="edgeLabel;html=1;align=center;verticalAlign=middle;resizable=0;points=[];" connectable="0" vertex="1" parent="-rJjBb609nBukMwAQ2wX-19">
          <mxGeometry x="-0.0087" y="-1" relative="1" as="geometry">
            <mxPoint x="14" y="-27" as="offset" />
          </mxGeometry>
        </mxCell>
        <mxCell id="-rJjBb609nBukMwAQ2wX-21" value="Instruction Decoder&lt;div&gt;(model selector)&lt;/div&gt;" style="whiteSpace=wrap;html=1;aspect=fixed;" vertex="1" parent="1">
          <mxGeometry x="550" y="450" width="80" height="80" as="geometry" />
        </mxCell>
        <mxCell id="-rJjBb609nBukMwAQ2wX-22" value="layer parameters&lt;div&gt;(packed layer descriptor)&lt;/div&gt;" style="text;html=1;align=center;verticalAlign=middle;whiteSpace=wrap;rounded=0;" vertex="1" parent="1">
          <mxGeometry x="315" y="455" width="160" height="40" as="geometry" />
        </mxCell>
        <mxCell id="-rJjBb609nBukMwAQ2wX-23" value="" style="edgeStyle=orthogonalEdgeStyle;rounded=0;orthogonalLoop=1;jettySize=auto;html=1;" edge="1" parent="1" target="-rJjBb609nBukMwAQ2wX-21">
          <mxGeometry relative="1" as="geometry">
            <mxPoint x="755" y="490" as="sourcePoint" />
            <Array as="points">
              <mxPoint x="666" y="490" />
            </Array>
          </mxGeometry>
        </mxCell>
        <mxCell id="-rJjBb609nBukMwAQ2wX-24" value="&lt;div&gt;- Tetris Grid&lt;/div&gt;&lt;div&gt;- current block type&amp;nbsp;&lt;/div&gt;&lt;div&gt;- Game State&lt;/div&gt;&lt;div&gt;- Piece Position&lt;/div&gt;&lt;div&gt;- Move validition&amp;nbsp;&lt;/div&gt;&lt;div&gt;(collision)&amp;nbsp;&lt;/div&gt;&lt;div&gt;&lt;br&gt;&lt;/div&gt;" style="edgeLabel;html=1;align=center;verticalAlign=middle;resizable=0;points=[];" vertex="1" connectable="0" parent="-rJjBb609nBukMwAQ2wX-23">
          <mxGeometry x="-0.072" y="1" relative="1" as="geometry">
            <mxPoint as="offset" />
          </mxGeometry>
        </mxCell>
        <mxCell id="-rJjBb609nBukMwAQ2wX-25" style="edgeStyle=orthogonalEdgeStyle;rounded=0;orthogonalLoop=1;jettySize=auto;html=1;entryX=1;entryY=0.75;entryDx=0;entryDy=0;" edge="1" parent="1" target="-rJjBb609nBukMwAQ2wX-13">
          <mxGeometry relative="1" as="geometry">
            <mxPoint x="710" y="255" as="sourcePoint" />
          </mxGeometry>
        </mxCell>
        <mxCell id="-rJjBb609nBukMwAQ2wX-26" value="" style="triangle;whiteSpace=wrap;html=1;" vertex="1" parent="1">
          <mxGeometry x="550" y="515" width="15" height="15" as="geometry" />
        </mxCell>
        <mxCell id="-rJjBb609nBukMwAQ2wX-27" value="" style="ellipse;whiteSpace=wrap;html=1;aspect=fixed;" vertex="1" parent="1">
          <mxGeometry x="555" y="530" width="15" height="15" as="geometry" />
        </mxCell>
        <mxCell id="-rJjBb609nBukMwAQ2wX-28" value="" style="triangle;whiteSpace=wrap;html=1;" vertex="1" parent="1">
          <mxGeometry x="545" y="260" width="15" height="15" as="geometry" />
        </mxCell>
        <mxCell id="-rJjBb609nBukMwAQ2wX-29" value="" style="ellipse;whiteSpace=wrap;html=1;aspect=fixed;" vertex="1" parent="1">
          <mxGeometry x="550" y="275" width="15" height="15" as="geometry" />
        </mxCell>
        <mxCell id="-rJjBb609nBukMwAQ2wX-30" value="" style="triangle;whiteSpace=wrap;html=1;" vertex="1" parent="1">
          <mxGeometry x="175" y="260" width="15" height="15" as="geometry" />
        </mxCell>
        <mxCell id="-rJjBb609nBukMwAQ2wX-31" value="" style="ellipse;whiteSpace=wrap;html=1;aspect=fixed;" vertex="1" parent="1">
          <mxGeometry x="180" y="275" width="15" height="15" as="geometry" />
        </mxCell>
        <mxCell id="-rJjBb609nBukMwAQ2wX-32" value="" style="triangle;whiteSpace=wrap;html=1;" vertex="1" parent="1">
          <mxGeometry x="175" y="515" width="15" height="15" as="geometry" />
        </mxCell>
        <mxCell id="-rJjBb609nBukMwAQ2wX-33" value="" style="ellipse;whiteSpace=wrap;html=1;aspect=fixed;" vertex="1" parent="1">
          <mxGeometry x="180" y="530" width="15" height="15" as="geometry" />
        </mxCell>
        <mxCell id="-rJjBb609nBukMwAQ2wX-34" value="&lt;div&gt;memory&amp;nbsp;&lt;/div&gt;&lt;div&gt;read &amp;amp;write addr&lt;/div&gt;" style="text;html=1;align=center;verticalAlign=middle;resizable=0;points=[];autosize=1;strokeColor=none;fillColor=none;" vertex="1" parent="1">
          <mxGeometry x="625" y="212.5" width="110" height="45" as="geometry" />
        </mxCell>
      </root>
    </mxGraphModel>
  </diagram>
</mxfile>
